<svg id="visual" viewBox="0 0 960 540" width="960" height="540" xmlns="http://www.w3.org/2000/svg" xmlns:xlink="http://www.w3.org/1999/xlink" version="1.1"><path d="M0 141L80 137.5C160 134 320 127 480 125.3C640 123.7 800 127.3 880 129.2L960 131L960 0L880 0C800 0 640 0 480 0C320 0 160 0 80 0L0 0Z" fill="#86b1f2"></path><path d="M0 195L80 184.3C160 173.7 320 152.3 480 147C640 141.7 800 152.3 880 157.7L960 163L960 129L880 127.2C800 125.3 640 121.7 480 123.3C320 125 160 132 80 135.5L0 139Z" fill="#93b8f3"></path><path d="M0 260L80 251C160 242 320 224 480 215C640 206 800 206 880 206L960 206L960 161L880 155.7C800 150.3 640 139.7 480 145C320 150.3 160 171.7 80 182.3L0 193Z" fill="#9fbff5"></path><path d="M0 276L80 268.8C160 261.7 320 247.3 480 238.3C640 229.3 800 225.7 880 223.8L960 222L960 204L880 204C800 204 640 204 480 213C320 222 160 240 80 249L0 258Z" fill="#aac5f6"></path><path d="M0 303L80 293.2C160 283.3 320 263.7 480 256.5C640 249.3 800 254.7 880 257.3L960 260L960 220L880 221.8C800 223.7 640 227.3 480 236.3C320 245.3 160 259.7 80 266.8L0 274Z" fill="#b6ccf7"></path><path d="M0 357L80 338.2C160 319.3 320 281.7 480 268.2C640 254.7 800 265.3 880 270.7L960 276L960 258L880 255.3C800 252.7 640 247.3 480 254.5C320 261.7 160 281.3 80 291.2L0 301Z" fill="#c1d3f8"></path><path d="M0 363L80 347.7C160 332.3 320 301.7 480 295.3C640 289 800 307 880 316L960 325L960 274L880 268.7C800 263.3 640 252.7 480 266.2C320 279.7 160 317.3 80 336.2L0 355Z" fill="#cbdbfa"></path><path d="M0 368L80 353.7C160 339.3 320 310.7 480 308.8C640 307 800 332 880 344.5L960 357L960 323L880 314C800 305 640 287 480 293.3C320 299.7 160 330.3 80 345.7L0 361Z" fill="#d6e2fb"></path><path d="M0 438L80 430.8C160 423.7 320 409.3 480 410.3C640 411.3 800 427.7 880 435.8L960 444L960 355L880 342.5C800 330 640 305 480 306.8C320 308.7 160 337.3 80 351.7L0 366Z" fill="#e0e9fc"></path><path d="M0 487L80 471.7C160 456.3 320 425.7 480 425.7C640 425.7 800 456.3 880 471.7L960 487L960 442L880 433.8C800 425.7 640 409.3 480 408.3C320 407.3 160 421.7 80 428.8L0 436Z" fill="#ebf0fd"></path><path d="M0 487L80 478.8C160 470.7 320 454.3 480 458.8C640 463.3 800 488.7 880 501.3L960 514L960 485L880 469.7C800 454.3 640 423.7 480 423.7C320 423.7 160 454.3 80 469.7L0 485Z" fill="#f5f8fe"></path><path d="M0 541L80 541C160 541 320 541 480 541C640 541 800 541 880 541L960 541L960 512L880 499.3C800 486.7 640 461.3 480 456.8C320 452.3 160 468.7 80 476.8L0 485Z" fill="#ffffff"></path></svg>