<svg id="visual" viewBox="0 0 960 540" width="960" height="540" xmlns="http://www.w3.org/2000/svg" xmlns:xlink="http://www.w3.org/1999/xlink" version="1.1"><rect x="0" y="0" width="960" height="540" fill="#071514"></rect><defs><linearGradient id="grad1_0" x1="43.8%" y1="0%" x2="100%" y2="100%"><stop offset="14.444444444444446%" stop-color="#009473" stop-opacity="1"></stop><stop offset="85.55555555555554%" stop-color="#009473" stop-opacity="1"></stop></linearGradient></defs><defs><linearGradient id="grad1_1" x1="43.8%" y1="0%" x2="100%" y2="100%"><stop offset="14.444444444444446%" stop-color="#009473" stop-opacity="1"></stop><stop offset="85.55555555555554%" stop-color="#00715e" stop-opacity="1"></stop></linearGradient></defs><defs><linearGradient id="grad1_2" x1="43.8%" y1="0%" x2="100%" y2="100%"><stop offset="14.444444444444446%" stop-color="#045046" stop-opacity="1"></stop><stop offset="85.55555555555554%" stop-color="#00715e" stop-opacity="1"></stop></linearGradient></defs><defs><linearGradient id="grad1_3" x1="43.8%" y1="0%" x2="100%" y2="100%"><stop offset="14.444444444444446%" stop-color="#045046" stop-opacity="1"></stop><stop offset="85.55555555555554%" stop-color="#0b312e" stop-opacity="1"></stop></linearGradient></defs><defs><linearGradient id="grad1_4" x1="43.8%" y1="0%" x2="100%" y2="100%"><stop offset="14.444444444444446%" stop-color="#071514" stop-opacity="1"></stop><stop offset="85.55555555555554%" stop-color="#0b312e" stop-opacity="1"></stop></linearGradient></defs><defs><linearGradient id="grad2_0" x1="0%" y1="0%" x2="56.3%" y2="100%"><stop offset="14.444444444444446%" stop-color="#009473" stop-opacity="1"></stop><stop offset="85.55555555555554%" stop-color="#009473" stop-opacity="1"></stop></linearGradient></defs><defs><linearGradient id="grad2_1" x1="0%" y1="0%" x2="56.3%" y2="100%"><stop offset="14.444444444444446%" stop-color="#00715e" stop-opacity="1"></stop><stop offset="85.55555555555554%" stop-color="#009473" stop-opacity="1"></stop></linearGradient></defs><defs><linearGradient id="grad2_2" x1="0%" y1="0%" x2="56.3%" y2="100%"><stop offset="14.444444444444446%" stop-color="#00715e" stop-opacity="1"></stop><stop offset="85.55555555555554%" stop-color="#045046" stop-opacity="1"></stop></linearGradient></defs><defs><linearGradient id="grad2_3" x1="0%" y1="0%" x2="56.3%" y2="100%"><stop offset="14.444444444444446%" stop-color="#0b312e" stop-opacity="1"></stop><stop offset="85.55555555555554%" stop-color="#045046" stop-opacity="1"></stop></linearGradient></defs><defs><linearGradient id="grad2_4" x1="0%" y1="0%" x2="56.3%" y2="100%"><stop offset="14.444444444444446%" stop-color="#0b312e" stop-opacity="1"></stop><stop offset="85.55555555555554%" stop-color="#071514" stop-opacity="1"></stop></linearGradient></defs><g transform="translate(960, 0)"><path d="M0 297C-37.4 289.9 -74.9 282.7 -111.7 269.8C-148.6 256.8 -185 238 -210 210C-235.1 182 -248.8 144.8 -261.5 108.3C-274.1 71.8 -285.5 35.9 -297 0L0 0Z" fill="#0c2321"></path><path d="M0 237.6C-29.9 231.9 -59.9 226.2 -89.4 215.8C-118.9 205.4 -148 190.4 -168 168C-188.1 145.6 -199.1 115.9 -209.2 86.6C-219.3 57.4 -228.4 28.7 -237.6 0L0 0Z" fill="#09413a"></path><path d="M0 178.2C-22.5 173.9 -44.9 169.6 -67 161.9C-89.2 154.1 -111 142.8 -126 126C-141 109.2 -149.3 86.9 -156.9 65C-164.4 43.1 -171.3 21.5 -178.2 0L0 0Z" fill="#006152"></path><path d="M0 118.8C-15 115.9 -29.9 113.1 -44.7 107.9C-59.5 102.7 -74 95.2 -84 84C-94 72.8 -99.5 57.9 -104.6 43.3C-109.6 28.7 -114.2 14.4 -118.8 0L0 0Z" fill="#008369"></path><path d="M0 59.4C-7.5 58 -15 56.5 -22.3 54C-29.7 51.4 -37 47.6 -42 42C-47 36.4 -49.8 29 -52.3 21.7C-54.8 14.4 -57.1 7.2 -59.4 0L0 0Z" fill="#009473"></path></g><g transform="translate(0, 540)"><path d="M0 -297C37.7 -283.2 75.4 -269.4 102.9 -248.5C130.4 -227.6 147.7 -199.5 178.2 -178.2C208.7 -156.8 252.4 -142.2 274.4 -113.7C296.4 -85.1 296.7 -42.5 297 0L0 0Z" fill="#0c2321"></path><path d="M0 -237.6C30.2 -226.6 60.4 -215.6 82.4 -198.8C104.3 -182.1 118.2 -159.6 142.6 -142.6C166.9 -125.5 201.9 -113.8 219.5 -90.9C237.1 -68.1 237.4 -34 237.6 0L0 0Z" fill="#09413a"></path><path d="M0 -178.2C22.6 -169.9 45.3 -161.7 61.8 -149.1C78.3 -136.6 88.6 -119.7 106.9 -106.9C125.2 -94.1 151.4 -85.3 164.6 -68.2C177.8 -51 178 -25.5 178.2 0L0 0Z" fill="#006152"></path><path d="M0 -118.8C15.1 -113.3 30.2 -107.8 41.2 -99.4C52.2 -91 59.1 -79.8 71.3 -71.3C83.5 -62.7 101 -56.9 109.8 -45.5C118.6 -34 118.7 -17 118.8 0L0 0Z" fill="#008369"></path><path d="M0 -59.4C7.5 -56.6 15.1 -53.9 20.6 -49.7C26.1 -45.5 29.5 -39.9 35.6 -35.6C41.7 -31.4 50.5 -28.4 54.9 -22.7C59.3 -17 59.3 -8.5 59.4 0L0 0Z" fill="#009473"></path></g></svg>